<svg id="Layer_1" enable-background="new 0 0 128 128" height="512" viewBox="0 0 128 128" width="512" xmlns="http://www.w3.org/2000/svg"><path d="m108.425 99.875c.001-.034.009-.068.006-.103l-.507-6.562c-.026-.343-.228-.649-.534-.809-.305-.159-.671-.151-.969.023l-5.679 3.328c-.031.018-.055.045-.083.066-.026.019-.05.037-.075.059-.088.079-.168.169-.223.275l-1.503 2.875v-.844c0-6.04-1.86-11.653-5.034-16.3v-5.612c0-2.032-1.197-3.775-2.915-4.604v-1.101c0-1.391-1.131-2.523-2.522-2.523h-8.453c-1.271 0-2.315.948-2.487 2.171-1.147-.311-2.321-.552-3.519-.72 6.099-2.974 10.675-8.595 12.235-15.358.286.081.575.135.867.135 2.379 0 4.244-2.451 4.244-5.579 0-1.617-.501-3.049-1.311-4.059v-11.66c0-12.123-9.828-21.951-21.951-21.951h-8.054c-.496 0-.981.042-1.469.074 0-.037.007-.072.007-.11-.025-1.856-1.22-3.345-2.668-3.326-1.09.015-2.012.88-2.391 2.097-1.059-.719-2.323-.822-3.186-.151-1.036.806-1.126 2.446-.287 3.838-7.094 3.638-11.957 11.008-11.957 19.528v11.66c-.81 1.01-1.311 2.442-1.311 4.059 0 3.128 1.864 5.579 4.244 5.579.292 0 .581-.054.867-.135 1.56 6.763 6.136 12.384 12.235 15.358-1.198.168-2.372.409-3.519.72-.173-1.224-1.217-2.171-2.487-2.171h-8.453c-1.391 0-2.522 1.132-2.522 2.523v1.101c-1.718.829-2.915 2.573-2.915 4.604v5.612c-.99 1.45-1.848 2.996-2.565 4.617h-4.455c-.552 0-1 .448-1 1v20.104c-2.164 1.722-3.558 4.372-3.558 7.346 0 5.177 4.212 9.39 9.39 9.39.035 0 .068-.005.103-.005.018 0 .034.005.052.005h63.746c.018 0 .034-.005.052-.005.035 0 .068.005.103.005 5.177 0 9.39-4.212 9.39-9.39 0-2.078-.687-3.994-1.834-5.551l4.751-9.086c.055-.106.083-.221.098-.338.004-.033.005-.065.006-.099z" fill="#e6e7e8"/><path d="m34.061 68.347c-1.683.52-2.915 2.07-2.915 3.924v5.871c0 .012.003.022.003.034.872-1.248 1.852-2.411 2.911-3.498v-6.331z" fill="#6dc9f7"/><path d="m85.91 68.347v6.331c1.059 1.087 2.039 2.251 2.911 3.498 0-.012.003-.022.003-.034v-5.871c.001-1.854-1.231-3.404-2.914-3.924z" fill="#6dc9f7"/><path d="m36.941 40.113c.455 0 .887.135 1.28.374v4.533c0 1.241.109 2.456.309 3.641-.471.377-1.009.61-1.589.61-1.791 0-3.243-2.05-3.243-4.579-.001-2.529 1.452-4.579 3.243-4.579z" fill="#fff"/><path d="m81.75 45.02v-4.533c.393-.239.825-.374 1.28-.374 1.791 0 3.243 2.05 3.243 4.579s-1.452 4.579-3.243 4.579c-.581 0-1.118-.233-1.589-.61.199-1.185.309-2.4.309-3.641z" fill="#fff"/><path d="m28.113 119.339h63.746c1.105 0 2-.895 2-2v-23.157c0-15.451-12.526-27.977-27.977-27.977h-11.792c-15.451 0-27.977 12.526-27.977 27.977v23.157c0 1.105.895 2 2 2z" fill="#0089ef"/><path d="m59.986 78.754c6.313 0 11.593-4.908 13.028-11.513-2.277-.674-4.667-1.036-7.132-1.036h-3.955c-.643.041-1.289.065-1.941.065s-1.298-.025-1.941-.065h-3.955c-2.465 0-4.855.362-7.132 1.036 1.434 6.605 6.715 11.513 13.028 11.513z" fill="#6dc9f7"/><path d="m59.986 66.784c3.032 0 5.918-.622 8.541-1.742v.259c0 4.717-3.824 8.541-8.541 8.541s-8.541-3.824-8.541-8.541v-.259c2.622 1.121 5.509 1.742 8.541 1.742z" fill="#fff"/><path d="m59.985 66.784c12.02 0 21.764-9.744 21.764-21.764v-13.655c0-12.02-9.744-21.764-21.764-21.764-12.02 0-21.764 9.744-21.764 21.764v13.655c0 12.02 9.744 21.764 21.764 21.764z" fill="#fff"/><path d="m45.56 83.5v-16.935c0-.841-.682-1.523-1.523-1.523h-8.453c-.841 0-1.523.682-1.523 1.523v16.935z" fill="#d4fbff"/><path d="m34.061 114.181h11.499v5.159h-11.499z" fill="#d4fbff"/><path d="m84.387 65.042h-8.453c-.841 0-1.523.682-1.523 1.523v52.774h11.499v-52.774c0-.841-.682-1.523-1.523-1.523z" fill="#d4fbff"/><path d="m23.126 83.5v20.598c1.367-.966 3.031-1.538 4.831-1.538 4.633 0 8.39 3.756 8.39 8.39 0 1.145-.231 2.236-.647 3.231h11.455v-30.681z" fill="#fa759e"/><path d="m43.892 83.5h3.263v30.681h-3.263z" fill="#fff"/><path d="m29.176 88.116h11.699v5.556h-11.699z" fill="#ffd7e5"/><path d="m98.387 105.503 5.048-9.653-.507-6.563-5.679 3.328-5.202 9.947c2.538.01 4.807 1.15 6.34 2.941z" fill="#fa759e"/><circle cx="92.013" cy="110.95" fill="#fff" r="8.39"/><circle cx="27.958" cy="110.95" fill="#fff" r="8.39"/><g fill="#3a2c60"><path d="m63.552 118.339h-7.132c-.552 0-1 .448-1 1s.448 1 1 1h7.132c.552 0 1-.448 1-1s-.448-1-1-1z"/><path d="m69.587 39.797c-1.202 0-2.176.974-2.176 2.176s.974 2.176 2.176 2.176 2.176-.974 2.176-2.176c.001-1.202-.974-2.176-2.176-2.176z"/><path d="m50.384 39.797c-1.202 0-2.176.974-2.176 2.176s.974 2.176 2.176 2.176 2.176-.974 2.176-2.176-.974-2.176-2.176-2.176z"/><path d="m59.985 52.661c1.916 0 3.475-1.559 3.475-3.475v-1.451c0-.552-.448-1-1-1s-1 .448-1 1v1.451c0 .813-.662 1.475-1.475 1.475s-1.475-.662-1.475-1.475v-1.451c0-.552-.448-1-1-1s-1 .448-1 1v1.451c0 1.916 1.559 3.475 3.475 3.475z"/><path d="m51.703 33.413-4.262.743c-.544.095-.908.613-.813 1.157.085.486.507.828.984.828.057 0 .115-.005.173-.015l4.262-.743c.544-.095.908-.613.813-1.157-.095-.543-.607-.906-1.157-.813z"/><path d="m67.925 35.384 4.262.743c.058.01.116.015.173.015.477 0 .899-.342.984-.828.095-.544-.27-1.062-.813-1.157l-4.262-.743c-.548-.093-1.062.27-1.157.813-.095.544.269 1.062.813 1.157z"/><path d="m65.619 55.706c.321-.445.221-1.064-.222-1.389-.442-.324-1.067-.228-1.396.213-.055.074-1.384 1.819-4.016 1.819-2.57 0-3.971-1.762-4.025-1.832-.333-.439-.961-.529-1.401-.193-.44.333-.526.96-.193 1.401.081.107 2.029 2.624 5.619 2.624 3.685 0 5.556-2.536 5.634-2.643z"/><path d="m104.425 95.876c.001-.035.009-.069.006-.103l-.507-6.562c-.026-.344-.228-.649-.534-.809-.305-.159-.671-.151-.969.023l-5.679 3.328c-.031.018-.055.045-.084.066-.026.019-.05.037-.074.058-.089.08-.168.169-.223.275l-1.503 2.875v-.844c0-6.035-1.863-11.635-5.034-16.275v-5.637c0-2.03-1.197-3.767-2.915-4.594v-1.112c0-1.391-1.132-2.523-2.523-2.523h-8.453c-1.28 0-2.328.961-2.49 2.197-1.154-.314-2.334-.564-3.54-.734 6.109-2.97 10.694-8.595 12.257-15.364.286.083.576.129.869.129 2.379 0 4.243-2.45 4.243-5.579 0-1.617-.501-3.049-1.31-4.06v-11.66c0-12.123-9.828-21.951-21.951-21.951h-8.054c-.496 0-.981.042-1.469.074 0-.037.008-.072.007-.11-.025-1.856-1.22-3.345-2.668-3.326-1.09.015-2.012.88-2.391 2.097-1.059-.719-2.323-.822-3.186-.151-1.036.806-1.125 2.446-.287 3.838-7.094 3.638-11.957 11.008-11.957 19.528v11.66c-.81 1.01-1.311 2.442-1.311 4.06 0 3.128 1.864 5.579 4.244 5.579.292 0 .583-.046.869-.129 1.563 6.768 6.147 12.393 12.256 15.364-1.206.169-2.385.418-3.539.731-.163-1.235-1.211-2.194-2.49-2.194h-8.453c-1.391 0-2.522 1.132-2.522 2.523v1.112c-1.717.826-2.915 2.563-2.915 4.594v5.632c-.989 1.443-1.845 2.982-2.561 4.597h-4.459c-.552 0-1 .448-1 1v20.104c-2.164 1.722-3.558 4.372-3.558 7.346 0 5.177 4.212 9.39 9.389 9.39.037 0 .073-.005.111-.006.015 0 .029.006.044.006h5.949 11.5 7.012c.552 0 1-.448 1-1s-.448-1-1-1h-6.012v-3.159h.596c.552 0 1-.448 1-1v-30.68c0-.552-.448-1-1-1h-.596v-13.025c2.122 6.141 7.395 10.279 13.426 10.279 6.03 0 11.303-4.138 13.426-10.28v48.865h-5.966c-.552 0-1 .448-1 1s.448 1 1 1h6.966 11.498 5.948c.015 0 .029-.005.044-.006.037 0 .073.006.111.006 5.177 0 9.39-4.212 9.39-9.39 0-2.078-.687-3.994-1.834-5.551l4.752-9.086c.055-.106.083-.221.098-.339.004-.032.005-.064.006-.097zm-10.804 5.832 4.049-7.744 4.414 2.308-3.957 7.567c-1.257-1.083-2.803-1.835-4.506-2.131zm8.677-7.581-2.987-1.562 2.742-1.607zm-9.44 4.724-1.432 2.739c-1.658.103-3.2.633-4.516 1.489v-25.756c3.716 4.621 5.948 10.482 5.948 16.86zm-5.033-26.58v3.03c-.297-.344-.602-.683-.915-1.013v-4.214c.562.565.915 1.339.915 2.197zm-12.413-5.706c0-.289.234-.523.522-.523h3.227v32.583c0 .552.448 1 1 1s1-.448 1-1v-32.583h3.227c.289 0 .523.234.523.523v38.261c-1.421 1.646-2.287 3.783-2.287 6.123s.866 4.477 2.287 6.123v1.267h-9.499zm7.117-18.401s-.001 0-.001-.001c.143-1.028.222-2.077.222-3.143v-3.876c1.309-.286 2.523 1.459 2.523 3.548 0 2.204-1.334 4.065-2.744 3.472zm-45.087-.001c-1.412.595-2.745-1.268-2.745-3.471 0-1.94 1.027-3.579 2.244-3.579.093 0 .187.01.28.031v3.876c0 1.067.079 2.115.222 3.143zm1.779-3.143v-12.791c1.486-.312 4.368-1.055 6.81-2.501 3.457-2.048 5.414-5.847 5.414-5.847s4.636 5.171 13.491 7.852c6.223 1.885 13.261 1.954 15.814 1.908v11.379c0 11.45-9.315 20.765-20.765 20.765-11.449-.001-20.764-9.316-20.764-20.765zm28.196 21.512c-.59 3.573-3.693 6.31-7.432 6.31-3.738 0-6.841-2.737-7.431-6.31 2.331.807 4.829 1.252 7.431 1.252s5.101-.444 7.432-1.252zm-31.834-.49h3.227v16.458h-3.749v-15.935c0-.288.234-.523.522-.523zm-3.437 6.229c0-.858.353-1.632.915-2.197v4.226c-.313.33-.617.67-.915 1.015zm.915 5.081v5.148h-3.251c.891-1.843 1.982-3.568 3.251-5.148zm-8.935 7.148h22.029v28.681h-9.087c.176-.717.279-1.461.279-2.231 0-5.177-4.212-9.39-9.39-9.39-1.365 0-2.66.3-3.831.826zm-3.558 26.45c0-4.075 3.315-7.39 7.389-7.39 4.075 0 7.39 3.315 7.39 7.39s-3.315 7.39-7.39 7.39c-4.074-.001-7.389-3.316-7.389-7.39zm23.992 7.389h-9.499v-1.267c.496-.574.921-1.209 1.267-1.891h8.231v3.158zm-3.75-35.839v-16.458h3.227c.289 0 .523.234.523.523v15.935zm19.175-4.746c-5.459 0-10.211-4.016-11.83-9.866.832-.191 1.679-.341 2.539-.451.974 4.234 4.765 7.405 9.291 7.405s8.319-3.171 9.292-7.406c.86.109 1.708.256 2.541.444-1.617 5.854-6.371 9.874-11.833 9.874zm32.028 40.585c-4.075 0-7.39-3.315-7.39-7.39s3.315-7.39 7.39-7.39 7.39 3.315 7.39 7.39-3.315 7.39-7.39 7.39z"/></g></svg>