<svg id="Layer_1" enable-background="new 0 0 128 128" height="512" viewBox="0 0 128 128" width="512" xmlns="http://www.w3.org/2000/svg"><path d="m101.975 79.365c-.043-.052-.085-.101-.136-.143-5.122-5.388-12.181-8.913-20.051-9.448v-1.298l.574-1.893c.97-3.2 2.783-5.952 5.244-7.958 5.245-4.275 8.253-10.603 8.253-17.358 0-12.153-9.883-22.198-22.031-22.391-5.961-.092-11.644 2.208-15.996 6.482-4.35 4.273-6.751 9.908-6.762 15.867-.012 6.718 2.956 13.027 8.144 17.31 2.543 2.1 4.42 4.97 5.43 8.301l.497 1.639v1.298c-7.87.535-14.928 4.06-20.051 9.448-.052.042-.094.091-.137.144-2.21 2.354-4.051 5.056-5.432 8.015h-16.785c-.552 0-1 .448-1 1v29.654c0 .552.448 1 1 1h6.752c1.613 2.854 4.671 4.788 8.176 4.788h69.601c1.654 0 3-1.346 3-3v-20.56c0-8.075-3.155-15.426-8.29-20.897z" fill="#e6e7e8"/><path d="m42.579 41.061h3.286c.552 0 1-.448 1-1s-.448-1-1-1h-3.286c-.552 0-1 .448-1 1s.448 1 1 1z" fill="#e6e7e8"/><path d="m100.063 40.061c0 .552.448 1 1 1h3.286c.552 0 1-.448 1-1s-.448-1-1-1h-3.286c-.552 0-1 .448-1 1z" fill="#e6e7e8"/><path d="m46.217 25.485 2.846 1.643c.157.091.33.134.499.134.346 0 .682-.179.867-.5.276-.478.112-1.09-.366-1.366l-2.846-1.643c-.479-.277-1.09-.112-1.366.366s-.113 1.089.366 1.366z" fill="#e6e7e8"/><path d="m96.866 54.727 2.845 1.643c.158.091.33.134.499.134.346 0 .682-.179.867-.5.276-.479.112-1.09-.366-1.366l-2.845-1.643c-.48-.277-1.09-.113-1.366.366-.276.478-.113 1.09.366 1.366z" fill="#e6e7e8"/><path d="m58.798 16.66c.186.321.521.5.867.5.169 0 .342-.043.499-.134.479-.276.642-.888.366-1.366l-1.643-2.845c-.277-.479-.889-.643-1.366-.366-.479.276-.642.888-.366 1.366z" fill="#e6e7e8"/><path d="m73.464 13.462c.552 0 1-.448 1-1v-3.286c0-.552-.448-1-1-1s-1 .448-1 1v3.286c0 .552.448 1 1 1z" fill="#e6e7e8"/><path d="m49.062 52.995-2.846 1.643c-.478.276-.642.888-.366 1.366.186.321.521.5.867.5.169 0 .341-.043.499-.134l2.846-1.643c.478-.276.642-.888.366-1.366-.276-.479-.887-.644-1.366-.366z" fill="#e6e7e8"/><path d="m97.367 27.262c.169 0 .342-.043.499-.134l2.845-1.643c.479-.276.642-.888.366-1.366-.277-.479-.889-.644-1.366-.366l-2.845 1.643c-.479.276-.642.888-.366 1.366.185.32.521.5.867.5z" fill="#e6e7e8"/><path d="m86.764 17.026c.158.091.33.134.499.134.346 0 .682-.179.867-.5l1.643-2.845c.276-.479.112-1.09-.366-1.366-.48-.276-1.09-.112-1.366.366l-1.643 2.845c-.277.478-.112 1.089.366 1.366z" fill="#e6e7e8"/><path d="m75.695 66.695h-12.462c-12.103 0-22.501 7.275-27.077 17.687h22.123v29.654h-17.047c-1.349 2.828-4.226 4.788-7.568 4.788h69.601c1.105 0 2-.895 2-2v-20.56c-.001-16.331-13.239-29.569-29.57-29.569z" fill="#ffd7e5"/><path d="m71.871 87.563h-4.814l-2.549-6.626 2.549-4.078h4.814l2.549 4.078z" fill="#fa759e"/><path d="m74.42 118.824h-9.912l2.549-31.261h4.814z" fill="#fa759e"/><path d="m90.82 37.268c0-11.679-9.375-21.169-21.01-21.354-11.746-.187-21.682 9.567-21.703 21.314-.012 6.647 3.014 12.584 7.766 16.508 2.76 2.279 4.725 5.376 5.763 8.801l.501 1.652h14.653l.578-1.906c1.001-3.302 2.907-6.281 5.581-8.461 4.803-3.915 7.871-9.874 7.871-16.554z" fill="#d4fbff"/><path d="m69.811 18.914c11.173.178 20.237 8.943 20.941 19.981.041-.538.069-1.079.069-1.627 0-11.679-9.375-21.169-21.01-21.354-11.746-.187-21.682 9.567-21.703 21.314-.001.522.023 1.038.059 1.551.795-11.088 10.385-20.044 21.644-19.865z" fill="#fff"/><path d="m69.464 32.143-6.866 10.814v21.232h13.732v-21.232z" fill="#fa759e"/><path d="m62.598 42.957s2.763 2.98 6.866 2.98 6.866-2.98 6.866-2.98l-6.866-10.814z" fill="#ffd7e5"/><path d="m70.895 76.938h-2.861c-3.255 0-5.893-2.638-5.893-5.893v-6.855h14.648v6.855c-.001 3.254-2.64 5.893-5.894 5.893z" fill="#6dc9f7"/><path d="m18.736 84.382v29.654h7.359c-.521-1.093-.821-2.31-.821-3.602 0-4.633 3.756-8.39 8.39-8.39s8.39 3.756 8.39 8.39c0 1.291-.3 2.509-.821 3.602h17.047v-29.654z" fill="#0089ef"/><path d="m43.208 89.681h9.858v5.3h-9.858z" fill="#fff"/><circle cx="33.663" cy="110.434" fill="#fff" r="8.39"/><g fill="#3a2c60"><path d="m97.987 75.383c-.046-.059-.091-.114-.148-.16-5.122-5.385-12.182-8.905-20.052-9.44v-1.436l.538-1.774c.972-3.207 2.789-5.965 5.256-7.976 5.236-4.268 8.239-10.584 8.239-17.329 0-12.133-9.866-22.161-21.994-22.354-5.944-.09-11.624 2.204-15.969 6.472-4.342 4.266-6.74 9.892-6.75 15.84-.012 6.706 2.951 13.005 8.129 17.281 2.549 2.104 4.431 4.981 5.442 8.32l.461 1.52v1.448c-7.857.535-14.906 4.038-20.025 9.411-.064.049-.117.104-.169.168-2.205 2.35-4.028 5.055-5.407 8.008h-16.803c-.552 0-1 .448-1 1v29.654c0 .552.448 1 1 1h6.752c1.613 2.854 4.67 4.788 8.175 4.788h69.601c1.654 0 3-1.346 3-3v-20.56c.001-8.071-3.148-15.414-8.276-20.881zm-26.803 11.18h-3.44l-2.123-5.519 1.956-3.129c.152.01.303.023.457.023h2.861c.154 0 .305-.013.457-.023l1.956 3.129zm-31.677 16.535v-17.716h17.771v27.654h-14.6c.239-.827.375-1.698.375-2.602 0-2.968-1.389-5.615-3.546-7.336zm21.224-35.272.409.711v2.507c0 2.784 1.662 5.182 4.043 6.269l-5.294 5.179-2.748-14.118c1.173-.256 2.37-.441 3.59-.548zm8.147-32.895h1.171l4.988 7.856c-.927.772-2.948 2.151-5.573 2.151-2.606 0-4.638-1.381-5.571-2.153zm2.789 40.928h-4.406c-2.33-.373-4.121-2.381-4.121-4.815v-5.855h12.647v5.855c.001 2.434-1.79 4.442-4.12 4.815zm-3.203-28.98v16.31h-4.866v-18.128c1.15.771 2.823 1.603 4.866 1.818zm6.866-1.818v18.128h-4.866v-16.31c2.043-.215 3.716-1.047 4.866-1.818zm-17.304 38.321h-7.5c-1.432-3.229-3.891-5.947-7.089-7.667 3.273-3.154 7.29-5.532 11.764-6.846zm.252 31.654c.552 0 1-.448 1-1v-28.535c.252-.004.498-.1.684-.282l3.722-3.641 2.358 6.131-2.455 30.114h-11.651v-2.788h6.342zm15.495-37.736c2.366-1.093 4.015-3.482 4.015-6.255v-2.442l.452-.787c1.219.108 2.415.3 3.586.557l-2.745 14.12zm-17.263-24.335c-4.716-3.894-7.414-9.629-7.403-15.735.01-5.41 2.195-10.53 6.152-14.417 3.959-3.89 9.139-6.008 14.535-5.898 11.043.175 20.026 9.306 20.026 20.353 0 6.141-2.735 11.892-7.503 15.779-2.129 1.736-3.822 3.963-4.988 6.524v-16.614c0-.008-.003-.015-.003-.022 0-.023-.008-.044-.01-.067-.008-.093-.029-.183-.063-.27-.013-.032-.026-.062-.042-.094-.014-.027-.021-.057-.038-.083l-6.71-10.569v-1.946c0-.552-.448-1-1-1s-1 .448-1 1v1.946l-6.71 10.569c-.016.026-.024.056-.038.083-.016.031-.03.061-.042.094-.034.087-.055.177-.063.27-.002.023-.009.044-.01.067 0 .007-.003.014-.003.022v16.672c-1.201-2.609-2.928-4.881-5.087-6.664zm-14.53 24.259c2.768 1.349 4.961 3.522 6.335 6.158h-10.554c1.137-2.239 2.558-4.306 4.219-6.158zm-22.245 35.812v-27.654h17.771v16.495c-1.175-.53-2.474-.832-3.844-.832-5.177 0-9.389 4.212-9.389 9.39 0 .903.135 1.774.375 2.602h-4.913zm6.539-2.602c0-4.075 3.315-7.39 7.389-7.39 4.075 0 7.39 3.315 7.39 7.39s-3.315 7.39-7.39 7.39c-4.074 0-7.389-3.315-7.389-7.39zm15.565 4.602h8.097v2.788h-10.5c.972-.762 1.792-1.707 2.403-2.788zm23.754 2.788 2.385-29.261h2.971l2.385 29.261zm38.671-1c0 .551-.449 1-1 1h-14.272v-9.477c0-.552-.448-1-1-1s-1 .448-1 1v9.477h-11.651l-2.455-30.114 2.37-6.161 3.753 3.671c.189.186.442.285.699.285.1 0 .2-.015.298-.045.351-.109.614-.403.684-.764l3.078-15.831c4.462 1.316 8.47 3.696 11.736 6.842-5.211 2.795-8.51 8.225-8.51 14.221v4.019c0 .552.448 1 1 1s1-.448 1-1v-4.019c0-5.444 3.105-10.355 7.963-12.716 4.54 5.058 7.309 11.736 7.309 19.052v20.56z"/><path d="m87.992 97.405c-.552 0-1 .448-1 1v5.788c0 .552.448 1 1 1s1-.448 1-1v-5.788c0-.552-.447-1-1-1z"/><path d="m38.579 37.061h3.286c.552 0 1-.448 1-1s-.448-1-1-1h-3.286c-.552 0-1 .448-1 1s.448 1 1 1z"/><path d="m96.063 36.061c0 .552.448 1 1 1h3.286c.552 0 1-.448 1-1s-.448-1-1-1h-3.286c-.552 0-1 .448-1 1z"/><path d="m42.217 21.485 2.845 1.643c.157.091.33.134.499.134.346 0 .682-.179.867-.5.276-.478.112-1.09-.366-1.366l-2.845-1.643c-.479-.277-1.09-.112-1.366.366s-.113 1.09.366 1.366z"/><path d="m96.711 50.637-2.846-1.643c-.48-.277-1.09-.113-1.366.366s-.112 1.09.366 1.366l2.846 1.643c.158.091.33.134.499.134.346 0 .682-.179.867-.5.276-.478.112-1.089-.366-1.366z"/><path d="m54.798 12.66c.186.321.521.5.867.5.169 0 .341-.043.499-.134.478-.276.642-.888.366-1.366l-1.643-2.846c-.276-.478-.887-.642-1.365-.366s-.642.888-.366 1.366z"/><path d="m69.464 9.462c.552 0 1-.448 1-1v-3.286c0-.552-.448-1-1-1s-1 .448-1 1v3.286c0 .552.448 1 1 1z"/><path d="m45.062 48.995-2.845 1.643c-.479.276-.642.888-.366 1.366.186.321.521.5.867.5.169 0 .341-.043.499-.134l2.845-1.643c.479-.276.642-.888.366-1.366-.277-.479-.886-.644-1.366-.366z"/><path d="m93.366 23.262c.169 0 .342-.043.499-.134l2.846-1.643c.479-.276.642-.888.366-1.366-.277-.479-.889-.644-1.366-.366l-2.846 1.643c-.479.276-.642.888-.366 1.366.186.321.522.5.867.5z"/><path d="m82.763 13.026c.158.091.33.134.499.134.346 0 .682-.179.867-.5l1.643-2.846c.276-.478.112-1.09-.366-1.366-.479-.276-1.09-.112-1.366.366l-1.643 2.846c-.276.478-.112 1.09.366 1.366z"/></g></svg>